/* XPM */
static char * ZoomSrc_xpm[] = {
"32 32 80 1",
" 	c #000000",
".	c #0E1215",
"+	c #15191F",
"@	c #13161C",
"#	c #010202",
"$	c #11151A",
"%	c #161A21",
"&	c #14191E",
"*	c #181D24",
"=	c #FFFFFF",
"-	c #161B21",
";	c #383548",
">	c #151A20",
",	c #CFE136",
"'	c #B2D785",
")	c #6FCBF3",
"!	c #14181E",
"~	c #FEF599",
"{	c #14171D",
"]	c #00A2DD",
"^	c #8ECB87",
"/	c #008EC8",
"(	c #383D5E",
"_	c #39477D",
":	c #394F95",
"<	c #3954A5",
"[	c #38467C",
"}	c #1C253D",
"|	c #38416A",
"1	c #3C539C",
"2	c #3955A7",
"3	c #374F97",
"4	c #212D4E",
"5	c #00ABE4",
"6	c #6478B3",
"7	c #8B98BD",
"8	c #A7AEC5",
"9	c #A8AFC5",
"0	c #ABB2C6",
"a	c #283969",
"b	c #D21C5E",
"c	c #00B2E9",
"d	c #32498D",
"e	c #3854A4",
"f	c #3C57A5",
"g	c #36509A",
"h	c #212D50",
"i	c #363345",
"j	c #363344",
"k	c #353242",
"l	c #33303F",
"m	c #353D65",
"n	c #3B529B",
"o	c #374E95",
"p	c #334B92",
"q	c #171C29",
"r	c #0D0B09",
"s	c #1C1913",
"t	c #232736",
"u	c #2C3A65",
"v	c #344A8C",
"w	c #262F4A",
"x	c #2C3F75",
"y	c #010100",
"z	c #191611",
"A	c #1C1D1C",
"B	c #2C3F76",
"C	c #0A0907",
"D	c #1B1D1B",
"E	c #17140F",
"F	c #1C1D1B",
"G	c #080705",
"H	c #1D1E1C",
"I	c #2D4075",
"J	c #243159",
"K	c #14120E",
"L	c #232F4C",
"M	c #050504",
"N	c #1D1D1A",
"O	c #1C232A",
"                          .+@@@@",
"                       #$%@@@@@@",
"                      &*@@@@@@@@",
"  ====================-@@@@@@@@@",
"  ;;;;;;;;;;;;;;;;;;;;>@@@@@@@@@",
"  ;,,,,;,,,;''''';;;;;>@@@@@@@@@",
"  ;;;;;;;;;;;;;;;;;;;;>@@@@@@@@@",
"  ;;;''''';));)))));;;+@@@@@@@@@",
"  ;;;;;;;;;;;;;;;;;;;;!@@@@@@@@@",
"  ;;;)));;;;;;;;;;;;;;!@@@@@@@@@",
"  ;;;;;;;;;;;;;;;;;;;;!@@@@@@@@@",
"  ;;;;;~~~;~;;;;;;;;;;{@@@@@@@@@",
"  ;;;;;;;;;;;;;;;;;;;;@@@@@@@@@@",
"  ;;;;;~~~~~;]];^^;;;;@@@@@@@@@@",
"  ;;;;;;;;;;;;;;;;;;;;@@@@@@@@@@",
"  ;;;/;;;;;;;;;;(_:<:[}@@@@@@@@@",
"  ;;;;;;;;;;;;;|12222234@@@@@@@@",
"  ;5;;;;;;;;;;(126787623}@@@@@@@",
"  ;;;;;;;;;;;;_269000962a@@@@@@@",
"  ;bbbbb;cc;;;:270000072d@@@@@@@",
"  ;;;;;;;;;;;;<280000082e@@@@@@@",
"  ;;;ccc;;;;;;:270000072d@@@@@@@",
"  ;;;;;;;;;;;;_269000962a@@@@@@@",
"  ;c;;;;;;;;;;(1267876fgh@@@@@@@",
"  ;;;ijjjjkllllmn22222o2pq@@@@@@",
"  rssssssssssssstuvevuwx2pq@@@@@",
"  yzsssssssssssssssssssAB2pq@@@@",
"   CssssssssssssssssssssDx2pq@@@",
"    EssssssssssssssssssssFx2pq@@",
"    GsssssssssssssssssssssHI2J@@",
"     KsssssssssssssssssssssHL@@@",
"     MssssssssssssssssssssssNO@@"};
